name rise30.8019peak61.5557fall86.2505.mot
datacolumns 19
datarows 11
range 21.13492500000000 21.15158700000000
endheader
time	ground_force1_vx	ground_force1_vy	ground_force1_vz	ground_force1_px	ground_force1_py	ground_force1_pz	ground_force2_vx	ground_force2_vy	ground_force2_vz	ground_force2_px	ground_force2_py	ground_force2_pz	ground_torque1_x	ground_torque1_y	ground_torque1_z	ground_torque2_x	ground_torque2_y	ground_torque2_z	
21.13492500000000	-7.88321400000000	44.86570600000000	-11.81411500000000	0.26096100000000	0.00000000000000	0.07524800000000	-54.35517000000000	740.22052499999995	-41.21358800000000	0.02181600000000	0.00000000000000	-0.08059600000000	0.00000000000000	-6.47270100000000	0.00000000000000	0.00000000000000	-10.50271500000000	0.00000000000000	
21.13659700000000	-8.40327800000000	51.27248300000000	-12.98706000000000	0.26430000000000	0.00000000000000	0.07633100000000	-55.10097600000000	737.88414299999999	-40.87047500000000	0.02093700000000	0.00000000000000	-0.08045400000000	0.00000000000000	-7.17909400000000	0.00000000000000	0.00000000000000	-10.53345500000000	0.00000000000000	
21.13825700000000	-8.76010800000000	57.61327500000000	-14.01086300000000	0.26745700000000	0.00000000000000	0.07733200000000	-55.86647200000000	735.46924200000001	-40.52177500000000	0.02005900000000	0.00000000000000	-0.08030900000000	0.00000000000000	-7.81594300000000	0.00000000000000	0.00000000000000	-10.56921100000000	0.00000000000000	
21.13991900000000	-8.94298000000000	63.82443700000000	-14.86790100000000	0.27045000000000	0.00000000000000	0.07826100000000	-56.65080700000000	732.97247700000003	-40.16715800000000	0.01918300000000	0.00000000000000	-0.08016300000000	0.00000000000000	-8.37242600000000	0.00000000000000	0.00000000000000	-10.60989900000000	0.00000000000000	
21.14158700000000	-8.94931500000000	69.86701200000000	-15.55019100000000	0.27329600000000	0.00000000000000	0.07912600000000	-57.45303600000000	730.39043200000003	-39.80628100000000	0.01831000000000	0.00000000000000	-0.08001400000000	0.00000000000000	-8.84284400000000	0.00000000000000	0.00000000000000	-10.65541800000000	0.00000000000000	
21.14325200000000	-8.78387500000000	75.72615800000000	-16.05866400000000	0.27600500000000	0.00000000000000	0.07993600000000	-58.27212000000000	727.71963000000005	-39.43878500000000	0.01743900000000	0.00000000000000	-0.07986300000000	0.00000000000000	-9.22635200000000	0.00000000000000	0.00000000000000	-10.70565200000000	0.00000000000000	
21.14493500000000	-8.45747800000000	81.40869200000000	-16.40184200000000	0.27858900000000	0.00000000000000	0.08069600000000	-59.10692300000000	724.95654300000001	-39.06429800000000	0.01657300000000	0.00000000000000	-0.07971000000000	0.00000000000000	-9.52633300000000	0.00000000000000	0.00000000000000	-10.76046900000000	0.00000000000000	
21.14660000000000	-7.98543900000000	86.93926200000000	-16.59411300000000	0.28105700000000	0.00000000000000	0.08141100000000	-59.95621500000000	722.09760700000004	-38.68244200000000	0.01571000000000	0.00000000000000	-0.07955500000000	0.00000000000000	-9.74952700000000	0.00000000000000	0.00000000000000	-10.81972100000000	0.00000000000000	
21.14825900000000	-7.38591900000000	92.35572100000000	-16.65382500000000	0.28341400000000	0.00000000000000	0.08208600000000	-60.81867300000000	719.13923599999998	-38.29282900000000	0.01485200000000	0.00000000000000	-0.07939800000000	0.00000000000000	-9.90503800000000	0.00000000000000	0.00000000000000	-10.88324300000000	0.00000000000000	
21.14993100000000	-6.67831100000000	97.70421600000000	-16.60138400000000	0.28566900000000	0.00000000000000	0.08272500000000	-61.69288500000000	716.07783300000006	-37.89507100000000	0.01399800000000	0.00000000000000	-0.07923900000000	0.00000000000000	-10.00330800000000	0.00000000000000	0.00000000000000	-10.95085700000000	0.00000000000000	
21.15158700000000	-5.88181600000000	103.03443300000001	-16.45751600000000	0.28782500000000	0.00000000000000	0.08333100000000	-62.57734400000000	712.90980600000000	-37.48877800000000	0.01315100000000	0.00000000000000	-0.07907700000000	0.00000000000000	-10.05515700000000	0.00000000000000	0.00000000000000	-11.02236700000000	0.00000000000000	
